#N canvas 37 27 914 850 12;
#X symbolatom 94 433 75 0 0 0 - - -, f 75;
#X symbolatom 160 399 60 0 0 0 - - -, f 60;
#X symbolatom 231 367 50 0 0 0 - - -, f 50;
#X symbolatom 232 335 50 0 0 0 - - -, f 50;
#X floatatom 57 495 5 0 0 0 - - -, f 5;
#X floatatom 75 467 5 0 0 0 - - -, f 5;
#X text 128 466 dropped y position;
#X text 108 495 dropped x position;
#X text 652 398 path;
#X text 650 336 file extension;
#X text 650 368 file name without extension;
#X text 714 434 full path and name;
#X obj 57 272 dnd-fileinfo;
#X text 50 69 2) drop .pd files to this or any window --> adds the
.pd file as an abstraction in the window.;
#X text 52 199 4) drop any file to this or any window --> use [dnd-fileinfo]
abstraction to get file info:;
#X text 50 23 1) drop .pd files to the console --> opens the patch.
;
#X text 50 134 3) drop text \, e.g selected from a web page \, to this
or any window --> adds the text as a comment in the window.;
#X text 160 274 same as:;
#X obj 231 273 dnd-plugin/dnd-fileinfo;
#X obj 65 612 route -drop -global-coords -window-name -path -name -ext
;
#X obj 139 637 unpack;
#X floatatom 139 662 5 0 0 0 - - -, f 5;
#X floatatom 184 662 5 0 0 0 - - -, f 5;
#X symbolatom 213 637 10 0 0 0 - - -, f 10;
#N canvas 696 119 327 493 tosymbol 0;
#X text 65 454 symbol out with correct spaces;
#X text 81 12 string in;
#X obj 91 31 inlet;
#X obj 91 431 outlet;
#X obj 85 31 cnv 5 5 17 empty empty empty 20 12 0 14 -118750 -66577
0;
#X obj 85 431 cnv 5 5 17 empty empty empty 20 12 0 14 -102336 -66577
0;
#X obj 91 55 list;
#X obj 91 193 list store, f 13;
#X obj 91 102 until;
#X obj 91 128 f, f 7;
#X obj 153 128 + 1;
#X msg 91 171 get \$1 1;
#X obj 134 103 0;
#X obj 91 263 list fromsymbol;
#X obj 91 215 route symbol float;
#X obj 109 239 makefilename %s;
#X obj 91 150 t f f;
#X obj 91 380 list store, f 19;
#X obj 91 355 list trim;
#X obj 91 332 list prepend append;
#X obj 157 286 spigot;
#X msg 157 308 32;
#X obj 91 286 t l b, f 9;
#X obj 91 77 t b b a b, f 19;
#X obj 91 404 list tosymbol;
#X connect 2 0 6 0;
#X connect 6 0 23 0;
#X connect 7 0 14 0;
#X connect 7 1 8 1;
#X connect 7 1 17 0;
#X connect 8 0 9 0;
#X connect 9 0 10 0;
#X connect 9 0 16 0;
#X connect 10 0 9 1;
#X connect 11 0 7 0;
#X connect 12 0 9 1;
#X connect 13 0 22 0;
#X connect 14 0 13 0;
#X connect 14 1 15 0;
#X connect 15 0 13 0;
#X connect 16 0 11 0;
#X connect 16 1 20 1;
#X connect 17 0 24 0;
#X connect 18 0 17 0;
#X connect 19 0 18 0;
#X connect 20 0 21 0;
#X connect 21 0 19 0;
#X connect 22 0 19 0;
#X connect 22 1 20 0;
#X connect 23 0 8 0;
#X connect 23 1 12 0;
#X connect 23 2 7 1;
#X connect 23 3 17 1;
#X connect 24 0 3 0;
#X restore 287 725 pd tosymbol;
#X symbolatom 287 748 0 0 0 0 - - -;
#N canvas 696 119 327 493 tosymbol 0;
#X text 65 454 symbol out with correct spaces;
#X text 81 12 string in;
#X obj 91 31 inlet;
#X obj 91 431 outlet;
#X obj 85 31 cnv 5 5 17 empty empty empty 20 12 0 14 -118750 -66577
0;
#X obj 85 431 cnv 5 5 17 empty empty empty 20 12 0 14 -102336 -66577
0;
#X obj 91 55 list;
#X obj 91 193 list store, f 13;
#X obj 91 102 until;
#X obj 91 128 f, f 7;
#X obj 153 128 + 1;
#X msg 91 171 get \$1 1;
#X obj 134 103 0;
#X obj 91 263 list fromsymbol;
#X obj 91 215 route symbol float;
#X obj 109 239 makefilename %s;
#X obj 91 150 t f f;
#X obj 91 380 list store, f 19;
#X obj 91 355 list trim;
#X obj 91 332 list prepend append;
#X obj 157 286 spigot;
#X msg 157 308 32;
#X obj 91 286 t l b, f 9;
#X obj 91 77 t b b a b, f 19;
#X obj 91 404 list tosymbol;
#X connect 2 0 6 0;
#X connect 6 0 23 0;
#X connect 7 0 14 0;
#X connect 7 1 8 1;
#X connect 7 1 17 0;
#X connect 8 0 9 0;
#X connect 9 0 10 0;
#X connect 9 0 16 0;
#X connect 10 0 9 1;
#X connect 11 0 7 0;
#X connect 12 0 9 1;
#X connect 13 0 22 0;
#X connect 14 0 13 0;
#X connect 14 1 15 0;
#X connect 15 0 13 0;
#X connect 16 0 11 0;
#X connect 16 1 20 1;
#X connect 17 0 24 0;
#X connect 18 0 17 0;
#X connect 19 0 18 0;
#X connect 20 0 21 0;
#X connect 21 0 19 0;
#X connect 22 0 19 0;
#X connect 22 1 20 0;
#X connect 23 0 8 0;
#X connect 23 1 12 0;
#X connect 23 2 7 1;
#X connect 23 3 17 1;
#X connect 24 0 3 0;
#X restore 361 669 pd tosymbol;
#X symbolatom 361 692 0 0 0 0 - - -;
#X symbolatom 435 637 0 0 0 0 - - -;
#X obj 65 581 r dnd-dropped;
#X text 62 552 5) detailed ouput infos & routing:;
#X obj 65 727 list prepend set;
#X obj 65 752 list trim;
#X msg 65 776 719 520 C:/Users/oliver/Desktop/STREAM.lnk;
#X text 468 669 <- avoid white space problems;
#X text 387 725 <- avoid white space problems;
#X connect 12 0 4 0;
#X connect 12 1 5 0;
#X connect 12 2 0 0;
#X connect 12 3 1 0;
#X connect 12 4 2 0;
#X connect 12 5 3 0;
#X connect 19 0 31 0;
#X connect 19 1 20 0;
#X connect 19 2 23 0;
#X connect 19 3 24 0;
#X connect 19 4 26 0;
#X connect 19 5 28 0;
#X connect 20 0 21 0;
#X connect 20 1 22 0;
#X connect 24 0 25 0;
#X connect 26 0 27 0;
#X connect 29 0 19 0;
#X connect 31 0 32 0;
#X connect 32 0 33 0;
