#N canvas 0 50 904 427 10;
#X obj 47 363 outlet;
#X obj 113 332 outlet;
#X obj 519 350 outlet;
#X obj 605 323 outlet;
#X obj 683 304 outlet;
#X obj 754 266 outlet;
#X text 545 193 parsing subpatches to deal with the white-space problem
;
#N canvas 486 18 625 667 parsing 0;
#X text 30 16 string in;
#X obj 40 35 inlet;
#X obj 34 35 cnv 5 5 17 empty empty empty 20 12 0 14 -118750 -66577
0;
#X obj 40 58 list;
#X obj 40 232 list store, f 13;
#X obj 40 137 until;
#X obj 40 163 f, f 7;
#X obj 102 163 + 1;
#X msg 40 206 get \$1 1;
#X obj 83 138 0;
#X obj 40 308 list fromsymbol;
#X obj 40 260 route symbol float;
#X obj 58 284 makefilename %s;
#X obj 40 185 t f f;
#X obj 40 435 list store, f 19;
#X obj 40 410 list trim;
#X obj 40 387 list prepend append;
#X obj 106 331 spigot;
#X msg 106 359 32;
#X obj 40 331 t l b, f 9;
#X obj 40 112 t b b a b, f 19;
#X text 48 78 turn everything to ascii numbers, f 18;
#X text 141 352 "32" for each space, f 10;
#X obj 40 582 outlet;
#X obj 34 582 cnv 5 5 17 empty empty empty 20 12 0 14 -102336 -66577
0;
#X obj 40 465 list tosymbol;
#X obj 302 578 list tosymbol;
#X obj 434 583 list tosymbol;
#X obj 158 553 list tosymbol;
#X obj 158 577 outlet;
#X obj 152 577 cnv 5 5 17 empty empty empty 20 12 0 14 -102336 -66577
0;
#X text 11 602 full filename with correct spaces, f 18;
#X text 149 596 path with correct spaces, f 15;
#X text 288 624 name with correct spaces, f 15;
#X text 424 625 extension, f 10;
#X obj 302 602 outlet;
#X obj 296 602 cnv 5 5 17 empty empty empty 20 12 0 14 -102336 -66577
0;
#X obj 434 606 outlet;
#X obj 428 606 cnv 5 5 17 empty empty empty 20 12 0 14 -102336 -66577
0;
#X obj 309 220 list store, f 11;
#X obj 309 75 until, f 8;
#X obj 309 99 f;
#X msg 309 197 get \$1 1;
#X obj 391 76 list length;
#X obj 391 99 - 1;
#X obj 350 99 - 1;
#X obj 309 145 sel -1;
#X obj 342 169 t f f, f 8;
#X obj 269 266 select 46;
#X obj 269 292 f;
#X text 272 245 find last dot;
#X obj 423 265 select 47;
#X text 432 244 find last slash;
#X obj 423 291 f;
#X obj 269 315 spigot;
#X obj 269 340 t f b;
#X msg 316 325 0;
#X obj 309 53 t b l l b, f 22;
#X msg 456 98 1;
#X obj 423 312 spigot;
#X obj 423 338 t f b;
#X msg 470 322 0;
#X obj 317 376 pack 0 0 0;
#X msg 486 98 -1;
#X msg 496 415 \$2;
#X obj 496 461 sel -1;
#X msg 496 490 symbol none, f 6;
#X obj 372 430 list store, f 12;
#X obj 400 556 list split 1;
#X obj 400 518 list split;
#X obj 268 430 list store;
#X obj 317 398 t b b l, f 19;
#X msg 552 415 \$2 \$3;
#X obj 552 438 -;
#X obj 268 466 list split;
#X msg 459 415 \$3;
#X obj 317 519 list split;
#X obj 268 553 list split 1;
#X obj 268 495 spigot;
#X obj 317 495 spigot;
#X obj 552 538 > 0;
#X obj 552 561 == 0;
#X text 282 13 list drip reverse to check for last dot and last slash
in a full name, f 35;
#X text 515 98 defaults;
#X obj 41 554 symbol;
#X obj 41 527 t b l, f 20;
#X obj 400 493 spigot;
#X obj 449 461 > 0;
#X connect 1 0 3 0;
#X connect 3 0 20 0;
#X connect 4 0 11 0;
#X connect 4 1 5 1;
#X connect 4 1 14 0;
#X connect 5 0 6 0;
#X connect 6 0 7 0;
#X connect 6 0 13 0;
#X connect 7 0 6 1;
#X connect 8 0 4 0;
#X connect 9 0 6 1;
#X connect 10 0 19 0;
#X connect 11 0 10 0;
#X connect 11 1 12 0;
#X connect 12 0 10 0;
#X connect 13 0 8 0;
#X connect 13 1 17 1;
#X connect 14 0 25 0;
#X connect 14 0 57 0;
#X connect 15 0 14 0;
#X connect 16 0 15 0;
#X connect 17 0 18 0;
#X connect 18 0 16 0;
#X connect 19 0 16 0;
#X connect 19 1 17 0;
#X connect 20 0 5 0;
#X connect 20 1 9 0;
#X connect 20 2 4 1;
#X connect 20 3 14 1;
#X connect 25 0 84 1;
#X connect 26 0 35 0;
#X connect 27 0 37 0;
#X connect 28 0 29 0;
#X connect 39 0 48 0;
#X connect 39 0 51 0;
#X connect 40 0 41 0;
#X connect 41 0 45 0;
#X connect 41 0 46 0;
#X connect 42 0 39 0;
#X connect 43 0 44 0;
#X connect 44 0 41 1;
#X connect 45 0 41 1;
#X connect 46 0 40 1;
#X connect 46 0 62 0;
#X connect 46 1 47 0;
#X connect 47 0 42 0;
#X connect 47 1 49 1;
#X connect 47 1 53 1;
#X connect 48 0 49 0;
#X connect 49 0 54 0;
#X connect 51 0 53 0;
#X connect 53 0 59 0;
#X connect 54 0 55 0;
#X connect 55 0 62 1;
#X connect 55 1 56 0;
#X connect 56 0 54 1;
#X connect 57 0 40 0;
#X connect 57 1 39 1;
#X connect 57 2 43 0;
#X connect 57 2 67 1;
#X connect 57 2 70 1;
#X connect 57 3 58 0;
#X connect 57 3 63 0;
#X connect 58 0 54 1;
#X connect 58 0 59 1;
#X connect 59 0 60 0;
#X connect 60 0 62 2;
#X connect 60 1 61 0;
#X connect 61 0 59 1;
#X connect 62 0 71 0;
#X connect 63 0 62 1;
#X connect 63 0 62 2;
#X connect 64 0 65 0;
#X connect 64 0 87 0;
#X connect 65 0 66 0;
#X connect 65 1 69 1;
#X connect 66 0 37 0;
#X connect 67 0 86 0;
#X connect 68 1 27 0;
#X connect 69 1 68 0;
#X connect 70 0 74 0;
#X connect 71 0 70 0;
#X connect 71 1 67 0;
#X connect 71 2 64 0;
#X connect 71 2 72 0;
#X connect 71 2 75 0;
#X connect 72 0 73 0;
#X connect 73 0 76 1;
#X connect 73 0 80 0;
#X connect 74 0 85 0;
#X connect 74 1 78 0;
#X connect 74 1 79 0;
#X connect 75 0 74 1;
#X connect 76 0 77 0;
#X connect 77 1 26 0;
#X connect 78 0 77 0;
#X connect 79 0 76 0;
#X connect 80 0 81 0;
#X connect 80 0 79 1;
#X connect 81 0 78 1;
#X connect 84 0 23 0;
#X connect 85 0 84 0;
#X connect 85 1 28 0;
#X connect 86 0 69 0;
#X connect 87 0 86 1;
#X restore 548 227 pd parsing;
#X text 749 287 file extension;
#X text 678 324 file name without extension;
#X text 618 343 path;
#X text 508 373 full path and name;
#X obj 64 5 r dnd-dropped;
#X text 161 6 global receive from "dnd-plugin.tcl";
#X obj 42 165 list split 2;
#X obj 166 165 list split 2;
#X obj 289 164 list split 1;
#X text 53 128 relative coordinates, f 12;
#X text 169 129 absolute coordinates, f 11;
#X text 301 132 window identifier, f 11;
#X obj 220 370 outlet;
#X obj 286 339 outlet;
#X obj 386 377 outlet;
#X text 111 351 relative y position;
#X text 49 380 relative x position;
#X text 222 387 absolute x position;
#X text 284 358 absolute y position;
#X text 388 394 tk window name;
#X obj 179 238 unpack 0 0;
#X obj 42 242 unpack 0 0;
#X connect 7 0 2 0;
#X connect 7 1 3 0;
#X connect 7 2 4 0;
#X connect 7 3 5 0;
#X connect 12 0 14 0;
#X connect 14 0 29 0;
#X connect 14 1 15 0;
#X connect 15 0 28 0;
#X connect 15 1 16 0;
#X connect 16 0 22 0;
#X connect 16 1 7 0;
#X connect 28 0 20 0;
#X connect 28 1 21 0;
#X connect 29 0 0 0;
#X connect 29 1 1 0;
