#N canvas 269 54 645 461 10;
#X obj 53 408 outlet;
#X obj 127 377 outlet;
#X obj 241 349 outlet;
#X obj 328 322 outlet;
#X obj 406 303 outlet;
#X obj 477 265 outlet;
#X text 472 286 file extension;
#X text 401 323 file name without extension;
#X text 341 342 path;
#X text 230 372 full path and name;
#X text 125 396 dropped y position;
#X text 55 425 dropped x position;
#X obj 34 22 r dnd-dropped;
#X text 128 23 global receive from "dnd-plugin.tcl";
#X obj 34 52 route -drop, f 12;
#X obj 212 82 route -ext, f 11;
#X obj 271 107 route -name, f 12;
#X obj 341 129 route -path, f 12;
#X obj 410 158 route -fullname, f 16;
#X obj 63 108 unpack 0 0 s;
#X connect 12 0 14 0;
#X connect 14 0 19 0;
#X connect 14 1 15 0;
#X connect 15 0 5 0;
#X connect 15 1 16 0;
#X connect 16 0 4 0;
#X connect 16 1 17 0;
#X connect 17 0 3 0;
#X connect 17 1 18 0;
#X connect 18 0 2 0;
#X connect 19 0 0 0;
#X connect 19 1 1 0;
