#N canvas 381 190 478 490 10;
#X declare -path iemguts -stdpath iemguts;
#X obj 56 431 outlet;
#X obj 50 431 cnv 5 5 17 empty empty empty 20 12 0 14 -102336 -66577
0;
#X text 20 15 get a dropped filename from parent patch;
#X obj 283 19 cnv 10 130 20 empty empty needs_IEMGUTS 10 11 0 14 -4160
-262144 0;
#X obj 283 35 cnv 4 130 4 empty empty empty 10 11 0 14 -4160 -262144
0;
#X obj 23 74 cnv 8 80 15 empty empty empty 20 12 0 14 -228032 -66577
0;
#X text 20 52 from dnd-plugin:;
#X msg 56 403 symbol \$1;
#X text 49 450 filename;
#X obj 22 73 r dnd-dropped;
#X obj 57 377 cnv 3 68 15 empty empty empty 2 7 0 10 -257985 -66577
0;
#N canvas 696 119 327 493 tosymbol 0;
#X text 65 454 symbol out with correct spaces;
#X text 81 12 string in;
#X obj 91 31 inlet;
#X obj 91 431 outlet;
#X obj 85 31 cnv 5 5 17 empty empty empty 20 12 0 14 -118750 -66577
0;
#X obj 85 431 cnv 5 5 17 empty empty empty 20 12 0 14 -102336 -66577
0;
#X obj 91 55 list;
#X obj 91 193 list store, f 13;
#X obj 91 102 until;
#X obj 91 128 f, f 7;
#X obj 153 128 + 1;
#X msg 91 171 get \$1 1;
#X obj 134 103 0;
#X obj 91 263 list fromsymbol;
#X obj 91 215 route symbol float;
#X obj 109 239 makefilename %s;
#X obj 91 150 t f f;
#X obj 91 380 list store, f 19;
#X obj 91 355 list trim;
#X obj 91 332 list prepend append;
#X obj 157 286 spigot;
#X msg 157 308 32;
#X obj 91 286 t l b, f 9;
#X obj 91 77 t b b a b, f 19;
#X obj 91 404 list tosymbol;
#X connect 2 0 6 0;
#X connect 6 0 23 0;
#X connect 7 0 14 0;
#X connect 7 1 8 1;
#X connect 7 1 17 0;
#X connect 8 0 9 0;
#X connect 9 0 10 0;
#X connect 9 0 16 0;
#X connect 10 0 9 1;
#X connect 11 0 7 0;
#X connect 12 0 9 1;
#X connect 13 0 22 0;
#X connect 14 0 13 0;
#X connect 14 1 15 0;
#X connect 15 0 13 0;
#X connect 16 0 11 0;
#X connect 16 1 20 1;
#X connect 17 0 24 0;
#X connect 18 0 17 0;
#X connect 19 0 18 0;
#X connect 20 0 21 0;
#X connect 21 0 19 0;
#X connect 22 0 19 0;
#X connect 22 1 20 0;
#X connect 23 0 8 0;
#X connect 23 1 12 0;
#X connect 23 2 7 1;
#X connect 23 3 17 1;
#X connect 24 0 3 0;
#X restore 56 376 pd tosymbol;
#X obj 22 341 list split 2;
#X obj 98 178 list split 2;
#X text 109 146 absolute coordinates, f 11;
#X obj 107 203 unpack;
#X floatatom 107 228 5 0 0 0 - - -;
#X floatatom 144 228 5 0 0 0 - - -;
#X obj 227 119 route setbounds;
#X obj 99 258 cnv 3 85 15 empty empty empty 2 7 0 10 -257985 -66577
0;
#N canvas 0 50 388 358 checkregion 0;
#X obj 25 50 inlet;
#X obj 127 281 outlet;
#X obj 19 50 cnv 5 5 17 empty empty empty 20 12 0 14 -118750 -66577
0;
#X obj 121 281 cnv 5 5 17 empty empty empty 20 12 0 14 -102336 -66577
0;
#X text 15 11 check this coordinate, f 10;
#X obj 133 49 inlet;
#X obj 127 49 cnv 5 5 17 empty empty empty 20 12 0 14 -118750 -66577
0;
#X text 179 49 check region;
#X text 180 281 1 if region is valid;
#X obj 133 115 unpack 0 0 0 0, f 33;
#X text 136 133 x start;
#X text 270 133 x end;
#X text 207 133 y start;
#X text 324 132 y end;
#X obj 52 115 unpack, f 7;
#X text 61 133 x;
#X text 99 132 y;
#X obj 127 257 &&, f 10;
#X obj 118 186 t f f;
#X obj 157 186 t f f;
#X obj 127 233 &&;
#X obj 184 233 &&;
#X obj 118 210 >=;
#X obj 146 210 <=;
#X obj 176 210 >=;
#X obj 206 210 <=;
#X obj 25 313 outlet;
#X obj 19 313 cnv 5 5 17 empty empty empty 20 12 0 14 -102336 -66577
0;
#X text 72 312 list out;
#X obj 25 274 spigot;
#X obj 25 73 t l l;
#X connect 0 0 30 0;
#X connect 5 0 9 0;
#X connect 9 0 22 1;
#X connect 9 1 24 1;
#X connect 9 2 23 1;
#X connect 9 3 25 1;
#X connect 14 0 18 0;
#X connect 14 1 19 0;
#X connect 17 0 1 0;
#X connect 17 0 29 1;
#X connect 18 0 22 0;
#X connect 18 1 23 0;
#X connect 19 0 24 0;
#X connect 19 1 25 0;
#X connect 20 0 17 0;
#X connect 21 0 17 1;
#X connect 22 0 20 0;
#X connect 23 0 20 1;
#X connect 24 0 21 0;
#X connect 25 0 21 1;
#X connect 29 0 26 0;
#X connect 30 0 29 0;
#X connect 30 1 14 0;
#X restore 98 257 pd checkregion;
#X obj 22 97 route -drop -global-coords;
#X obj 227 96 iemguts/receivecanvas 1;
#X text 110 115 gets sent first !;
#X text 210 194 so we first check the global coords to open/close the
spigot for the finally sent -drop list, f 19;
#X obj 22 290 spigot, f 7;
#X text 77 289 relative coordinates & full name;
#X obj 22 315 t l l, f 22;
#X obj 151 341 list split 2;
#X obj 151 430 outlet;
#X obj 145 430 cnv 5 5 17 empty empty empty 20 12 0 14 -102336 -66577
0;
#X text 144 449 drop pos;
#X obj 227 47 declare -path iemguts -stdpath iemguts;
#X connect 7 0 0 0;
#X connect 9 0 21 0;
#X connect 11 0 7 0;
#X connect 12 1 11 0;
#X connect 13 0 15 0;
#X connect 13 0 20 0;
#X connect 15 0 16 0;
#X connect 15 1 17 0;
#X connect 18 0 20 1;
#X connect 20 1 25 1;
#X connect 21 0 25 0;
#X connect 21 1 13 0;
#X connect 22 0 18 0;
#X connect 25 0 27 0;
#X connect 27 0 12 0;
#X connect 27 1 28 0;
#X connect 28 0 29 0;
